{
  "accessors": [
    {
      "bufferView": 2,
      "componentType": 5126,
      "count": 2143,
      "max": [
        0.9989534020423889,
        0.9997603297233582,
        0.9998056888580322
      ],
      "min": [
        -0.9989545941352844,
        -0.9997600317001343,
        -0.9998059868812561
      ],
      "type": "VEC3"
    },
    {
      "bufferView": 2,
      "byteOffset": 25716,
      "componentType": 5126,
      "count": 2143,
      "max": [
        0.9989484548568726,
        0.9997261762619019,
        0.9998034834861755
      ],
      "min": [
        -0.9989484548568726,
        -0.9997261762619019,
        -0.9998034238815308
      ],
      "type": "VEC3"
    },
    {
      "bufferView": 1,
      "componentType": 5126,
      "count": 2143,
      "max": [
        1.0000011920928955,
        1.0
      ],
      "min": [
        0.0,
        0.0
      ],
      "type": "VEC2"
    },
    {
      "bufferView": 1,
      "byteOffset": 17144,
      "componentType": 5126,
      "count": 2143,
      "max": [
        1.0000011920928955,
        1.0
      ],
      "min": [
        0.0,
        0.0
      ],
      "type": "VEC2"
    },
    {
      "bufferView": 1,
      "byteOffset": 34288,
      "componentType": 5126,
      "count": 2143,
      "max": [
        1.0000011920928955,
        1.0
      ],
      "min": [
        0.0,
        0.0
      ],
      "type": "VEC2"
    },
    {
      "bufferView": 0,
      "componentType": 5125,
      "count": 11904,
      "type": "SCALAR"
    },
    {
      "bufferView": 2,
      "byteOffset": 51432,
      "componentType": 5126,
      "count": 396,
      "max": [
        0.5054721236228943,
        1.1509881019592285,
        0.04465740919113159
      ],
      "min": [
        -0.5149295330047607,
        -1.1740210056304932,
        -0.04465740919113159
      ],
      "type": "VEC3"
    },
    {
      "bufferView": 2,
      "byteOffset": 56184,
      "componentType": 5126,
      "count": 396,
      "max": [
        0.9997634291648865,
        0.9988429546356201,
        1.0
      ],
      "min": [
        -0.9997632503509521,
        -0.9988425970077515,
        -1.0
      ],
      "type": "VEC3"
    },
    {
      "bufferView": 1,
      "byteOffset": 51432,
      "componentType": 5126,
      "count": 396,
      "max": [
        0.3293508291244507,
        0.4929257929325104
      ],
      "min": [
        0.30476099252700806,
        0.4261796772480011
      ],
      "type": "VEC2"
    },
    {
      "bufferView": 1,
      "byteOffset": 54600,
      "componentType": 5126,
      "count": 396,
      "max": [
        0.3293508291244507,
        0.4929257929325104
      ],
      "min": [
        0.30476099252700806,
        0.4261796772480011
      ],
      "type": "VEC2"
    },
    {
      "bufferView": 1,
      "byteOffset": 57768,
      "componentType": 5126,
      "count": 396,
      "max": [
        0.3293508291244507,
        0.4929257929325104
      ],
      "min": [
        0.30476099252700806,
        0.4261796772480011
      ],
      "type": "VEC2"
    },
    {
      "bufferView": 0,
      "byteOffset": 47616,
      "componentType": 5125,
      "count": 1536,
      "type": "SCALAR"
    },
    {
      "bufferView": 2,
      "byteOffset": 60936,
      "componentType": 5126,
      "count": 2701,
      "max": [
        0.6326677799224854,
        0.6058697700500488,
        0.6326677799224854
      ],
      "min": [
        -0.6326677799224854,
        -0.1714545488357544,
        -0.6326677799224854
      ],
      "type": "VEC3"
    },
    {
      "bufferView": 2,
      "byteOffset": 93348,
      "componentType": 5126,
      "count": 2701,
      "max": [
        0.9999926090240479,
        1.0,
        0.9999926090240479
      ],
      "min": [
        -0.9999926686286926,
        -0.9973455667495728,
        -0.9999926090240479
      ],
      "type": "VEC3"
    },
    {
      "bufferView": 1,
      "byteOffset": 60936,
      "componentType": 5126,
      "count": 2701,
      "max": [
        0.3377258777618408,
        0.45573270320892334
      ],
      "min": [
        0.32583048939704895,
        0.4261796772480011
      ],
      "type": "VEC2"
    },
    {
      "bufferView": 1,
      "byteOffset": 82544,
      "componentType": 5126,
      "count": 2701,
      "max": [
        0.3377258777618408,
        0.45573270320892334
      ],
      "min": [
        0.32583048939704895,
        0.4261796772480011
      ],
      "type": "VEC2"
    },
    {
      "bufferView": 1,
      "byteOffset": 104152,
      "componentType": 5126,
      "count": 2701,
      "max": [
        0.3377258777618408,
        0.45573270320892334
      ],
      "min": [
        0.32583048939704895,
        0.4261796772480011
      ],
      "type": "VEC2"
    },
    {
      "bufferView": 0,
      "byteOffset": 53760,
      "componentType": 5125,
      "count": 15072,
      "type": "SCALAR"
    },
    {
      "bufferView": 2,
      "byteOffset": 125760,
      "componentType": 5126,
      "count": 630,
      "max": [
        1.2000000476837158,
        1.1077135801315308,
        0.03840017318725586
      ],
      "min": [
        -0.45837754011154175,
        -1.2000001668930054,
        -0.041600197553634644
      ],
      "type": "VEC3"
    },
    {
      "bufferView": 2,
      "byteOffset": 133320,
      "componentType": 5126,
      "count": 630,
      "max": [
        1.0,
        1.0,
        1.0
      ],
      "min": [
        -1.0,
        -1.0,
        -1.0
      ],
      "type": "VEC3"
    },
    {
      "bufferView": 1,
      "byteOffset": 125760,
      "componentType": 5126,
      "count": 630,
      "max": [
        0.32580888271331787,
        0.49937501549720764
      ],
      "min": [
        0.3214404881000519,
        0.4261798858642578
      ],
      "type": "VEC2"
    },
    {
      "bufferView": 1,
      "byteOffset": 130800,
      "componentType": 5126,
      "count": 630,
      "max": [
        0.32580888271331787,
        0.49937501549720764
      ],
      "min": [
        0.3214404881000519,
        0.4261798858642578
      ],
      "type": "VEC2"
    },
    {
      "bufferView": 1,
      "byteOffset": 135840,
      "componentType": 5126,
      "count": 630,
      "max": [
        0.32580888271331787,
        0.49937501549720764
      ],
      "min": [
        0.3214404881000519,
        0.4261798858642578
      ],
      "type": "VEC2"
    },
    {
      "bufferView": 0,
      "byteOffset": 114048,
      "componentType": 5125,
      "count": 1620,
      "type": "SCALAR"
    }
  ],
  "asset": {
    "extras": {
      "author": "Nicholas-3D (https://sketchfab.com/Nicholas01)",
      "license": "CC-BY-4.0 (http://creativecommons.org/licenses/by/4.0/)",
      "source": "https://sketchfab.com/3d-models/golden-globe-decoration-328498b205c64897a78d24ddb8a73703",
      "title": "Golden Globe Decoration"
    },
    "generator": "Sketchfab-15.83.0",
    "version": "2.0"
  },
  "bufferViews": [
    {
      "buffer": 0,
      "byteLength": 120528,
      "name": "floatBufferViews",
      "target": 34963
    },
    {
      "buffer": 0,
      "byteLength": 140880,
      "byteOffset": 120528,
      "byteStride": 8,
      "name": "floatBufferViews",
      "target": 34962
    },
    {
      "buffer": 0,
      "byteLength": 140880,
      "byteOffset": 261408,
      "byteStride": 12,
      "name": "floatBufferViews",
      "target": 34962
    }
  ],
  "buffers": [
    {
      "byteLength": 402288,
      "uri": "scene.bin"
    }
  ],
  "images": [
    {
      "uri": "textures/GlobeMat_baseColor.png"
    },
    {
      "uri": "textures/GlobeMat_metallicRoughness.png"
    }
  ],
  "materials": [
    {
      "doubleSided": true,
      "name": "GlobeMat",
      "pbrMetallicRoughness": {
        "baseColorTexture": {
          "index": 0
        },
        "metallicRoughnessTexture": {
          "index": 1,
          "texCoord": 1
        },
        "roughnessFactor": 0.06552400921602808
      }
    }
  ],
  "meshes": [
    {
      "name": "Object_0",
      "primitives": [
        {
          "attributes": {
            "NORMAL": 1,
            "POSITION": 0,
            "TEXCOORD_0": 2,
            "TEXCOORD_1": 3,
            "TEXCOORD_2": 4
          },
          "indices": 5,
          "material": 0,
          "mode": 4
        }
      ]
    },
    {
      "name": "Object_1",
      "primitives": [
        {
          "attributes": {
            "NORMAL": 7,
            "POSITION": 6,
            "TEXCOORD_0": 8,
            "TEXCOORD_1": 9,
            "TEXCOORD_2": 10
          },
          "indices": 11,
          "material": 0,
          "mode": 4
        }
      ]
    },
    {
      "name": "Object_2",
      "primitives": [
        {
          "attributes": {
            "NORMAL": 13,
            "POSITION": 12,
            "TEXCOORD_0": 14,
            "TEXCOORD_1": 15,
            "TEXCOORD_2": 16
          },
          "indices": 17,
          "material": 0,
          "mode": 4
        }
      ]
    },
    {
      "name": "Object_3",
      "primitives": [
        {
          "attributes": {
            "NORMAL": 19,
            "POSITION": 18,
            "TEXCOORD_0": 20,
            "TEXCOORD_1": 21,
            "TEXCOORD_2": 22
          },
          "indices": 23,
          "material": 0,
          "mode": 4
        }
      ]
    }
  ],
  "nodes": [
    {
      "children": [
        1
      ],
      "matrix": [
        1.0,
        0.0,
        0.0,
        0.0,
        0.0,
        2.220446049250313e-16,
        -1.0,
        0.0,
        0.0,
        1.0,
        2.220446049250313e-16,
        0.0,
        0.0,
        0.0,
        0.0,
        1.0
      ],
      "name": "Sketchfab_model"
    },
    {
      "children": [
        2
      ],
      "name": "root"
    },
    {
      "children": [
        3,
        5,
        7,
        9
      ],
      "matrix": [
        1.0,
        0.0,
        0.0,
        0.0,
        0.0,
        2.220446049250313e-16,
        1.0,
        0.0,
        0.0,
        -1.0,
        2.220446049250313e-16,
        0.0,
        0.0,
        0.0,
        0.0,
        1.0
      ],
      "name": "GLTF_SceneRootNode"
    },
    {
      "children": [
        4
      ],
      "matrix": [
        1.0,
        0.0,
        0.0,
        0.0,
        0.0,
        1.0,
        0.0,
        0.0,
        0.0,
        0.0,
        1.0,
        0.0,
        0.0,
        1.9427205324172974,
        0.0,
        1.0
      ],
      "name": "Globe_2_0"
    },
    {
      "mesh": 0,
      "name": "Object_4"
    },
    {
      "children": [
        6
      ],
      "matrix": [
        1.0,
        0.0,
        0.0,
        0.0,
        0.0,
        1.0,
        0.0,
        0.0,
        0.0,
        0.0,
        1.0,
        0.0,
        0.0,
        1.9427205324172974,
        0.0,
        1.0
      ],
      "name": "Globe_1_1"
    },
    {
      "mesh": 1,
      "name": "Object_6"
    },
    {
      "children": [
        8
      ],
      "matrix": [
        1.0,
        0.0,
        0.0,
        0.0,
        0.0,
        1.0,
        0.0,
        0.0,
        0.0,
        0.0,
        1.0,
        0.0,
        0.0,
        0.1494913101196289,
        0.0,
        1.0
      ],
      "name": "Globe_2"
    },
    {
      "mesh": 2,
      "name": "Object_8"
    },
    {
      "children": [
        10
      ],
      "matrix": [
        1.0,
        0.0,
        0.0,
        0.0,
        0.0,
        1.0,
        0.0,
        0.0,
        0.0,
        0.0,
        1.0,
        0.0,
        0.0,
        1.9427205324172974,
        0.0,
        1.0
      ],
      "name": "Globe_3_3"
    },
    {
      "mesh": 3,
      "name": "Object_10"
    }
  ],
  "samplers": [
    {
      "magFilter": 9729,
      "minFilter": 9987,
      "wrapS": 10497,
      "wrapT": 10497
    }
  ],
  "scene": 0,
  "scenes": [
    {
      "name": "Sketchfab_Scene",
      "nodes": [
        0
      ]
    }
  ],
  "textures": [
    {
      "sampler": 0,
      "source": 0
    },
    {
      "sampler": 0,
      "source": 1
    }
  ]
}
